<svg width="19" height="19" viewBox="0 0 19 19" fill="none" xmlns="http://www.w3.org/2000/svg">
<path d="M16.6923 4.92307H2.30769C1.58547 4.92307 1 5.50855 1 6.23076V16.6923C1 17.4145 1.58547 18 2.30769 18H16.6923C17.4145 18 18 17.4145 18 16.6923V6.23076C18 5.50855 17.4145 4.92307 16.6923 4.92307Z" stroke="white" stroke-opacity="0.75" stroke-width="2" stroke-linecap="round" stroke-linejoin="round"/>
<path d="M13.4228 4.92308V2.30769C13.4228 1.96087 13.285 1.62825 13.0398 1.38301C12.7946 1.13777 12.4619 1 12.1151 1H6.88435C6.53753 1 6.20491 1.13777 5.95967 1.38301C5.71444 1.62825 5.57666 1.96087 5.57666 2.30769V4.92308" stroke="white" stroke-opacity="0.75" stroke-width="2" stroke-linecap="round" stroke-linejoin="round"/>
</svg>
