<svg width="24" height="24" viewBox="0 0 24 24" fill="none" xmlns="http://www.w3.org/2000/svg">
<g clip-path="url(#clip0_219_437)">
<path d="M14.3161 9.09701C14.2283 8.84859 14.0928 8.6227 13.9207 8.43034C13.5544 8.02117 13.0223 7.76367 12.4299 7.76367H10.8818C9.89586 7.76367 9.09656 8.56296 9.09656 9.54895C9.09656 10.3879 9.68073 11.1137 10.5003 11.293L12.8573 11.8086C13.7755 12.0094 14.4299 12.8231 14.4299 13.763C14.4299 14.8675 13.5345 15.7637 12.4299 15.7637H11.0966C10.2258 15.7637 9.48493 15.2072 9.21037 14.4304" stroke="#777777" stroke-width="2" stroke-linecap="round" stroke-linejoin="round"/>
<path d="M11.7633 7.76397V5.76395" stroke="#777777" stroke-width="2" stroke-linecap="round" stroke-linejoin="round"/>
<path d="M11.7633 17.7638V15.7638" stroke="#777777" stroke-width="2" stroke-linecap="round" stroke-linejoin="round"/>
<path d="M3.4259 23.1403V18.8546H7.71162" stroke="#777777" stroke-width="2" stroke-linecap="round" stroke-linejoin="round"/>
<path d="M22.951 9.94965C24.0173 15.6204 20.5471 21.2424 14.8813 22.7604C10.545 23.9223 6.12041 22.3594 3.42566 19.1211" stroke="#777777" stroke-width="2" stroke-linecap="round" stroke-linejoin="round"/>
<path d="M1.04915 14.0504C-0.0172047 8.37966 3.45305 2.75772 9.11882 1.2396C13.4549 0.0777468 17.8792 1.64044 20.574 4.87826" stroke="#777777" stroke-width="2" stroke-linecap="round" stroke-linejoin="round"/>
<path d="M20.574 0.860077V5.14579H16.2882" stroke="#777777" stroke-width="2" stroke-linecap="round" stroke-linejoin="round"/>
</g>
<defs>
<clipPath id="clip0_219_437">
<rect width="24" height="24" fill="white"/>
</clipPath>
</defs>
</svg>
