<svg width="27" height="27" viewBox="0 0 27 27" fill="none" xmlns="http://www.w3.org/2000/svg">
<path d="M13.5 26C20.4037 26 26 20.4037 26 13.5C26 6.59644 20.4037 1 13.5 1C6.59644 1 1 6.59644 1 13.5C1 20.4037 6.59644 26 13.5 26Z" stroke="#399D31" stroke-width="2" stroke-linecap="round" stroke-linejoin="round"/>
<path d="M16.7729 10.0815C16.6603 9.76304 16.4866 9.47342 16.2659 9.22681C15.7964 8.70223 15.1141 8.37212 14.3547 8.37212H12.37C11.1059 8.37212 10.0812 9.39685 10.0812 10.6609C10.0812 11.7365 10.8301 12.667 11.8809 12.8968L14.9026 13.5578C16.0798 13.8153 16.9188 14.8585 16.9188 16.0635C16.9188 17.4796 15.7708 18.6285 14.3547 18.6285H12.6453C11.5288 18.6285 10.5791 17.915 10.2271 16.9191" stroke="#399D31" stroke-width="2" stroke-linecap="round" stroke-linejoin="round"/>
<path d="M13.5001 8.37179V5.80769" stroke="#399D31" stroke-width="2" stroke-linecap="round" stroke-linejoin="round"/>
<path d="M13.5001 21.1919V18.6279" stroke="#399D31" stroke-width="2" stroke-linecap="round" stroke-linejoin="round"/>
</svg>
